<svg width="361" height="128" viewBox="0 0 361 128" fill="none" xmlns="http://www.w3.org/2000/svg">
<path d="M113.864 106.904V110H96.44V90.2H76.424V110H59V106.904H65.192V59.672H76.424V80.696H96.44V59.672H107.672V106.904H113.864ZM167.916 106.904V110H113.844V106.904H128.172C122.268 102.968 119.316 96.608 119.316 87.824V59.672H130.548V87.464C130.548 91.496 131.484 94.688 133.356 97.04C135.228 99.344 137.748 100.496 140.916 100.496C144.084 100.496 146.58 99.344 148.404 97.04C150.276 94.688 151.212 91.496 151.212 87.464V59.672H162.444V87.824C162.444 96.608 159.516 102.968 153.66 106.904H167.916ZM218.746 106.904V110H167.122V106.904H174.106V59.672H193.69C197.098 59.672 200.026 60.08 202.474 60.896C204.97 61.712 206.842 62.816 208.09 64.208C210.346 66.8 211.474 69.728 211.474 72.992C211.474 76.928 210.202 79.856 207.658 81.776C206.794 82.448 206.194 82.88 205.858 83.072C205.522 83.216 204.922 83.48 204.058 83.864C207.178 84.536 209.65 85.952 211.474 88.112C213.346 90.224 214.282 92.864 214.282 96.032C214.282 100.784 212.41 104.408 208.666 106.904H218.746ZM185.338 100.496H193.042C196.258 100.496 198.658 100.112 200.242 99.344C201.874 98.528 202.69 96.968 202.69 94.664C202.69 92.312 201.826 90.776 200.098 90.056C198.418 89.288 195.706 88.904 191.962 88.904H185.338V100.496ZM185.338 80.048H190.666C193.786 80.048 196.09 79.712 197.578 79.04C199.114 78.368 199.882 76.928 199.882 74.72C199.882 72.464 199.186 70.976 197.794 70.256C196.402 69.536 194.05 69.176 190.738 69.176H185.338V80.048ZM269.582 106.904V110H217.958V106.904H224.942V59.672H244.526C247.934 59.672 250.862 60.08 253.31 60.896C255.806 61.712 257.678 62.816 258.926 64.208C261.182 66.8 262.31 69.728 262.31 72.992C262.31 76.928 261.038 79.856 258.494 81.776C257.63 82.448 257.03 82.88 256.694 83.072C256.358 83.216 255.758 83.48 254.894 83.864C258.014 84.536 260.486 85.952 262.31 88.112C264.182 90.224 265.118 92.864 265.118 96.032C265.118 100.784 263.246 104.408 259.502 106.904H269.582ZM236.174 100.496H243.878C247.094 100.496 249.494 100.112 251.078 99.344C252.71 98.528 253.526 96.968 253.526 94.664C253.526 92.312 252.662 90.776 250.934 90.056C249.254 89.288 246.542 88.904 242.798 88.904H236.174V100.496ZM236.174 80.048H241.502C244.622 80.048 246.926 79.712 248.414 79.04C249.95 78.368 250.718 76.928 250.718 74.72C250.718 72.464 250.022 70.976 248.63 70.256C247.238 69.536 244.886 69.176 241.574 69.176H236.174V80.048ZM315.45 106.904V110H268.794V106.904H275.778V59.672H287.01V99.992H308.466V106.904H315.45ZM316.7 106.904V59.672H352.988V69.68H327.932V80.048H350.468V89.624H327.932V100.064H353.78V106.904H360.764V110H309.716V106.904H316.7Z" fill="#1A2159"/>
<path d="M45.1579 6L61.9474 127L99.3421 6L7 94.8354L123 74.924L45.1579 6Z" stroke="#FFC700" stroke-width="4"/>
</svg>
